<svg xmlns="http://www.w3.org/2000/svg" width="1600" height="960" viewBox="0 0 1600 960">
  <defs>
    <linearGradient id="bg" x1="0" x2="1" y1="0" y2="1">
      <stop offset="0%" stop-color="#eff6ff" />
      <stop offset="100%" stop-color="#fff7ed" />
    </linearGradient>
    <linearGradient id="line" x1="0" x2="1" y1="0" y2="0">
      <stop offset="0%" stop-color="#2563eb" />
      <stop offset="100%" stop-color="#ea580c" />
    </linearGradient>
    <linearGradient id="area" x1="0" x2="0" y1="0" y2="1">
      <stop offset="0%" stop-color="#60a5fa" stop-opacity="0.28" />
      <stop offset="100%" stop-color="#60a5fa" stop-opacity="0.02" />
    </linearGradient>
  </defs>
  <rect width="100%" height="100%" fill="url(#bg)" />
  <text x="120" y="56" font-size="42" font-weight="800" fill="#0f172a">中国住户存款 / A股总市值 存市比趋势</text>
  <text x="120" y="92" font-size="22" fill="#475569">时间区间：2015-01 到 2026-03，每日任务自动刷新</text>
  
            <g>
              <rect x="120" y="90" width="310" height="95" rx="24" fill="#ffffff" opacity="0.95" />
              <text x="148" y="126" font-size="20" fill="#64748b">最新月份</text>
              <text x="148" y="160" font-size="32" font-weight="700" fill="#0f172a">2026-03</text>
            </g>
            
            <g>
              <rect x="454" y="90" width="310" height="95" rx="24" fill="#ffffff" opacity="0.95" />
              <text x="482" y="126" font-size="20" fill="#64748b">住户存款</text>
              <text x="482" y="160" font-size="32" font-weight="700" fill="#0f172a">173.59万亿元</text>
            </g>
            
            <g>
              <rect x="788" y="90" width="310" height="95" rx="24" fill="#ffffff" opacity="0.95" />
              <text x="816" y="126" font-size="20" fill="#64748b">A股总市值</text>
              <text x="816" y="160" font-size="32" font-weight="700" fill="#0f172a">121.71万亿元</text>
            </g>
            
            <g>
              <rect x="1122" y="90" width="310" height="95" rx="24" fill="#ffffff" opacity="0.95" />
              <text x="1150" y="126" font-size="20" fill="#64748b">存市比</text>
              <text x="1150" y="160" font-size="32" font-weight="700" fill="#0f172a">1.426</text>
            </g>
            
  <rect x="120" y="260" width="1360" height="520" rx="28" fill="#ffffff" opacity="0.82" />
  
            <line x1="120.00" y1="260" x2="120.00" y2="780" stroke="#dbeafe" stroke-dasharray="4 8" />
            <text x="120.00" y="814" text-anchor="middle" font-size="18" fill="#64748b">2015</text>
            
            <line x1="239.68" y1="260" x2="239.68" y2="780" stroke="#dbeafe" stroke-dasharray="4 8" />
            <text x="239.68" y="814" text-anchor="middle" font-size="18" fill="#64748b">2016</text>
            
            <line x1="359.36" y1="260" x2="359.36" y2="780" stroke="#dbeafe" stroke-dasharray="4 8" />
            <text x="359.36" y="814" text-anchor="middle" font-size="18" fill="#64748b">2017</text>
            
            <line x1="479.04" y1="260" x2="479.04" y2="780" stroke="#dbeafe" stroke-dasharray="4 8" />
            <text x="479.04" y="814" text-anchor="middle" font-size="18" fill="#64748b">2018</text>
            
            <line x1="598.72" y1="260" x2="598.72" y2="780" stroke="#dbeafe" stroke-dasharray="4 8" />
            <text x="598.72" y="814" text-anchor="middle" font-size="18" fill="#64748b">2019</text>
            
            <line x1="729.28" y1="260" x2="729.28" y2="780" stroke="#dbeafe" stroke-dasharray="4 8" />
            <text x="729.28" y="814" text-anchor="middle" font-size="18" fill="#64748b">2020</text>
            
            <line x1="848.96" y1="260" x2="848.96" y2="780" stroke="#dbeafe" stroke-dasharray="4 8" />
            <text x="848.96" y="814" text-anchor="middle" font-size="18" fill="#64748b">2021</text>
            
            <line x1="968.64" y1="260" x2="968.64" y2="780" stroke="#dbeafe" stroke-dasharray="4 8" />
            <text x="968.64" y="814" text-anchor="middle" font-size="18" fill="#64748b">2022</text>
            
            <line x1="1099.20" y1="260" x2="1099.20" y2="780" stroke="#dbeafe" stroke-dasharray="4 8" />
            <text x="1099.20" y="814" text-anchor="middle" font-size="18" fill="#64748b">2023</text>
            
            <line x1="1218.88" y1="260" x2="1218.88" y2="780" stroke="#dbeafe" stroke-dasharray="4 8" />
            <text x="1218.88" y="814" text-anchor="middle" font-size="18" fill="#64748b">2024</text>
            
            <line x1="1338.56" y1="260" x2="1338.56" y2="780" stroke="#dbeafe" stroke-dasharray="4 8" />
            <text x="1338.56" y="814" text-anchor="middle" font-size="18" fill="#64748b">2025</text>
            
            <line x1="1458.24" y1="260" x2="1458.24" y2="780" stroke="#dbeafe" stroke-dasharray="4 8" />
            <text x="1458.24" y="814" text-anchor="middle" font-size="18" fill="#64748b">2026</text>
            
  
            <line x1="120" y1="780.00" x2="1480" y2="780.00" stroke="#cbd5e1" stroke-dasharray="4 8" />
            <text x="100" y="786.00" text-anchor="end" font-size="18" fill="#64748b">0.72</text>
            
            <line x1="120" y1="693.33" x2="1480" y2="693.33" stroke="#cbd5e1" stroke-dasharray="4 8" />
            <text x="100" y="699.33" text-anchor="end" font-size="18" fill="#64748b">0.93</text>
            
            <line x1="120" y1="606.67" x2="1480" y2="606.67" stroke="#cbd5e1" stroke-dasharray="4 8" />
            <text x="100" y="612.67" text-anchor="end" font-size="18" fill="#64748b">1.14</text>
            
            <line x1="120" y1="520.00" x2="1480" y2="520.00" stroke="#cbd5e1" stroke-dasharray="4 8" />
            <text x="100" y="526.00" text-anchor="end" font-size="18" fill="#64748b">1.35</text>
            
            <line x1="120" y1="433.33" x2="1480" y2="433.33" stroke="#cbd5e1" stroke-dasharray="4 8" />
            <text x="100" y="439.33" text-anchor="end" font-size="18" fill="#64748b">1.55</text>
            
            <line x1="120" y1="346.67" x2="1480" y2="346.67" stroke="#cbd5e1" stroke-dasharray="4 8" />
            <text x="100" y="352.67" text-anchor="end" font-size="18" fill="#64748b">1.76</text>
            
            <line x1="120" y1="260.00" x2="1480" y2="260.00" stroke="#cbd5e1" stroke-dasharray="4 8" />
            <text x="100" y="266.00" text-anchor="end" font-size="18" fill="#64748b">1.97</text>
            
  <path d="M 120.00 780.00 L 120.00 573.26 L 130.88 577.09 L 141.76 630.65 L 152.64 712.22 L 163.52 736.67 L 174.40 697.09 L 185.28 629.71 L 196.16 548.07 L 207.04 528.47 L 217.92 644.94 L 228.80 666.10 L 239.68 518.91 L 250.56 479.46 L 261.44 558.56 L 272.32 557.68 L 283.20 564.81 L 294.08 574.18 L 304.96 582.50 L 315.84 608.54 L 326.72 589.77 L 337.60 635.27 L 348.48 611.74 L 359.36 599.10 L 370.24 615.23 L 381.12 612.58 L 392.00 606.81 L 402.88 595.93 L 413.76 600.84 L 424.64 616.96 L 435.52 634.53 L 446.40 637.89 L 457.28 640.30 L 468.16 638.32 L 479.04 649.56 L 489.92 604.33 L 500.80 597.51 L 511.68 593.09 L 522.56 591.52 L 533.44 544.29 L 544.32 556.55 L 555.20 527.97 L 566.08 530.34 L 576.96 499.41 L 587.84 463.55 L 598.72 457.08 L 609.60 532.62 L 620.48 560.01 L 631.36 559.75 L 642.24 526.71 L 653.12 534.96 L 664.00 538.78 L 674.88 534.54 L 685.76 529.28 L 696.64 540.99 L 707.52 533.21 L 718.40 565.17 L 729.28 540.04 L 740.16 537.63 L 751.04 489.23 L 761.92 522.81 L 772.80 524.29 L 783.68 550.37 L 794.56 618.44 L 805.44 629.74 L 816.32 595.29 L 827.20 631.11 L 838.08 636.27 L 848.96 631.45 L 859.84 616.82 L 870.72 596.80 L 881.60 614.28 L 892.48 640.20 L 903.36 635.26 L 914.24 622.51 L 925.12 640.75 L 936.00 631.30 L 946.88 644.42 L 957.76 648.52 L 968.64 592.36 L 979.52 607.93 L 990.40 563.40 L 1001.28 527.28 L 1012.16 552.15 L 1023.04 580.13 L 1033.92 565.99 L 1044.80 555.28 L 1055.68 509.76 L 1066.56 496.59 L 1077.44 531.35 L 1088.32 507.57 L 1099.20 516.47 L 1110.08 517.34 L 1120.96 506.28 L 1131.84 516.91 L 1142.72 497.13 L 1153.60 488.69 L 1164.48 505.60 L 1175.36 474.85 L 1186.24 458.83 L 1197.12 444.47 L 1208.00 425.86 L 1218.88 303.33 L 1229.76 391.37 L 1240.64 388.92 L 1251.52 406.53 L 1262.40 398.92 L 1273.28 360.38 L 1284.16 353.79 L 1295.04 326.40 L 1305.92 436.68 L 1316.80 445.54 L 1327.68 438.71 L 1338.56 372.32 L 1349.44 414.20 L 1360.32 404.05 L 1371.20 393.00 L 1382.08 404.08 L 1392.96 428.88 L 1403.84 453.52 L 1414.72 503.01 L 1425.60 502.91 L 1436.48 504.21 L 1447.36 512.33 L 1458.24 531.41 L 1469.12 530.18 L 1480.00 486.46 L 1480.00 780.00 Z" fill="url(#area)" />
  <path d="M 120.00 573.26 L 130.88 577.09 L 141.76 630.65 L 152.64 712.22 L 163.52 736.67 L 174.40 697.09 L 185.28 629.71 L 196.16 548.07 L 207.04 528.47 L 217.92 644.94 L 228.80 666.10 L 239.68 518.91 L 250.56 479.46 L 261.44 558.56 L 272.32 557.68 L 283.20 564.81 L 294.08 574.18 L 304.96 582.50 L 315.84 608.54 L 326.72 589.77 L 337.60 635.27 L 348.48 611.74 L 359.36 599.10 L 370.24 615.23 L 381.12 612.58 L 392.00 606.81 L 402.88 595.93 L 413.76 600.84 L 424.64 616.96 L 435.52 634.53 L 446.40 637.89 L 457.28 640.30 L 468.16 638.32 L 479.04 649.56 L 489.92 604.33 L 500.80 597.51 L 511.68 593.09 L 522.56 591.52 L 533.44 544.29 L 544.32 556.55 L 555.20 527.97 L 566.08 530.34 L 576.96 499.41 L 587.84 463.55 L 598.72 457.08 L 609.60 532.62 L 620.48 560.01 L 631.36 559.75 L 642.24 526.71 L 653.12 534.96 L 664.00 538.78 L 674.88 534.54 L 685.76 529.28 L 696.64 540.99 L 707.52 533.21 L 718.40 565.17 L 729.28 540.04 L 740.16 537.63 L 751.04 489.23 L 761.92 522.81 L 772.80 524.29 L 783.68 550.37 L 794.56 618.44 L 805.44 629.74 L 816.32 595.29 L 827.20 631.11 L 838.08 636.27 L 848.96 631.45 L 859.84 616.82 L 870.72 596.80 L 881.60 614.28 L 892.48 640.20 L 903.36 635.26 L 914.24 622.51 L 925.12 640.75 L 936.00 631.30 L 946.88 644.42 L 957.76 648.52 L 968.64 592.36 L 979.52 607.93 L 990.40 563.40 L 1001.28 527.28 L 1012.16 552.15 L 1023.04 580.13 L 1033.92 565.99 L 1044.80 555.28 L 1055.68 509.76 L 1066.56 496.59 L 1077.44 531.35 L 1088.32 507.57 L 1099.20 516.47 L 1110.08 517.34 L 1120.96 506.28 L 1131.84 516.91 L 1142.72 497.13 L 1153.60 488.69 L 1164.48 505.60 L 1175.36 474.85 L 1186.24 458.83 L 1197.12 444.47 L 1208.00 425.86 L 1218.88 303.33 L 1229.76 391.37 L 1240.64 388.92 L 1251.52 406.53 L 1262.40 398.92 L 1273.28 360.38 L 1284.16 353.79 L 1295.04 326.40 L 1305.92 436.68 L 1316.80 445.54 L 1327.68 438.71 L 1338.56 372.32 L 1349.44 414.20 L 1360.32 404.05 L 1371.20 393.00 L 1382.08 404.08 L 1392.96 428.88 L 1403.84 453.52 L 1414.72 503.01 L 1425.60 502.91 L 1436.48 504.21 L 1447.36 512.33 L 1458.24 531.41 L 1469.12 530.18 L 1480.00 486.46" fill="none" stroke="url(#line)" stroke-width="5" stroke-linecap="round" stroke-linejoin="round" />
  <circle cx="1480.00" cy="486.46" r="8" fill="#ea580c" />
  <circle cx="1480.00" cy="486.46" r="16" fill="#ea580c" opacity="0.18" />
  <text x="1468.00" y="468.46" text-anchor="end" font-size="20" font-weight="700" fill="#9a3412">1.426</text>
  <text x="120" y="238" font-size="20" fill="#334155">存市比（住户存款 / A股总市值）</text>
  <text x="120" y="840" font-size="22" font-weight="700" fill="#0f172a">最新说明</text>
  <text x="120" y="878" font-size="20" fill="#334155">住户存款月份：2026-03，股票市值取值日：2026-03-31</text>
  <text x="120" y="910" font-size="20" fill="#334155">较上月变化：+0.105，环比：+7.92%</text>
  <text x="120" y="940" font-size="18" fill="#64748b">数据口径：住户存款来自人民银行金融机构人民币信贷收支表；A股总市值来自 Tushare daily_basic，并按每月最后一个交易日聚合。</text>
</svg>
